<svg xmlns="http://www.w3.org/2000/svg" width="1.25em" fill="none" stroke="currentColor"><path fill-rule="evenodd" stroke-linecap="round" stroke-linejoin="round" stroke-width="2" d="M23 19C23 20.1046 22.1046 21 21 21H3C1.89543 21 1 20.1046 1 19V8C1 6.89543 1.89543 6 3 6H7L9 3H15L17 6H21C22.1046 6 23 6.89543 23 8V19Z" clip-rule="evenodd"/><path fill-rule="evenodd" stroke-linecap="round" stroke-linejoin="round" stroke-width="2" d="M12 17C14.2091 17 16 15.2091 16 13C16 10.7909 14.2091 9 12 9C9.79086 9 8 10.7909 8 13C8 15.2091 9.79086 17 12 17Z" clip-rule="evenodd"/></svg>