<svg xmlns="http://www.w3.org/2000/svg" width="24" height="24" fill="none" stroke="currentColor" viewBox="0 0 24 24"><path fill-rule="evenodd" stroke-linecap="round" stroke-linejoin="round" stroke-width="2" d="M12 14C13.1046 14 14 13.1046 14 12C14 10.8954 13.1046 10 12 10C10.8954 10 10 10.8954 10 12C10 13.1046 10.8954 14 12 14Z" clip-rule="evenodd"/><path fill-rule="evenodd" stroke-linecap="round" stroke-linejoin="round" stroke-width="2" d="M12 6C13.1046 6 14 5.10457 14 4C14 2.89543 13.1046 2 12 2C10.8954 2 10 2.89543 10 4C10 5.10457 10.8954 6 12 6Z" clip-rule="evenodd"/><path fill-rule="evenodd" stroke-linecap="round" stroke-linejoin="round" stroke-width="2" d="M12 22C13.1046 22 14 21.1046 14 20C14 18.8954 13.1046 18 12 18C10.8954 18 10 18.8954 10 20C10 21.1046 10.8954 22 12 22Z" clip-rule="evenodd"/></svg>